<svg width="62" height="62" viewBox="0 0 62 62" fill="none" xmlns="http://www.w3.org/2000/svg">
<circle cx="31" cy="31" r="31" fill="#FAFDFC"/>
<path d="M29.4097 24.664V21.016H12.8658V43H29.4097V39.352H16.8658V33.624H28.2257V29.976H16.8658V24.664H29.4097ZM41.3688 43.352C46.6168 43.352 49.6248 40.568 49.6248 36.632C49.6248 32.632 46.5528 31.16 41.9768 30.136C38.4888 29.336 36.8568 28.696 36.8568 26.904C36.8568 25.368 38.3608 24.024 40.5688 24.024C42.7448 24.024 44.9528 24.952 46.8728 26.616L49.0487 23.672C46.8408 21.784 44.2168 20.6 40.7288 20.6C36.0888 20.6 32.8248 23.416 32.8248 27.256C32.8248 31.384 35.9928 32.696 40.5368 33.752C44.0568 34.584 45.6248 35.192 45.6248 37.016C45.6248 38.584 44.2168 39.928 41.4968 39.928C38.6168 39.928 36.2808 38.776 34.2648 36.952L31.9608 39.8C34.3928 42.072 37.5928 43.352 41.3688 43.352Z" fill="#DB75FF"/>
</svg>
